<svg fill="none" height="24" viewBox="0 0 24 24" width="24" xmlns="http://www.w3.org/2000/svg"><g stroke="#2a353d" stroke-width="1.5"><path d="m3 6c0-1.41421 0-2.12132.43934-2.56066s1.14645-.43934 2.56066-.43934 2.12132 0 2.56066.43934.43934 1.14645.43934 2.56066 0 2.12132-.43934 2.56066-1.14645.43934-2.56066.43934-2.12132 0-2.56066-.43934-.43934-1.14645-.43934-2.56066z"/><path d="m3 18c0-1.4142 0-2.1213.43934-2.5607.43934-.4393 1.14645-.4393 2.56066-.4393s2.12132 0 2.56066.4393c.43934.4394.43934 1.1465.43934 2.5607s0 2.1213-.43934 2.5607c-.43934.4393-1.14645.4393-2.56066.4393s-2.12132 0-2.56066-.4393c-.43934-.4394-.43934-1.1465-.43934-2.5607z"/><path d="m3 12h6" stroke-linecap="round" stroke-linejoin="round"/><path d="m12 3v5" stroke-linecap="round" stroke-linejoin="round"/><path d="m15 6c0-1.41421 0-2.12132.4393-2.56066.4394-.43934 1.1465-.43934 2.5607-.43934s2.1213 0 2.5607.43934c.4393.43934.4393 1.14645.4393 2.56066s0 2.12132-.4393 2.56066c-.4394.43934-1.1465.43934-2.5607.43934s-2.1213 0-2.5607-.43934c-.4393-.43934-.4393-1.14645-.4393-2.56066z"/><path d="m21 12h-6c-1.4142 0-2.1213 0-2.5607.4393-.4393.4394-.4393 1.1465-.4393 2.5607m0 2.7692v2.7693m3-5.5385v1.5c0 1.4464.7837 1.5 2 1.5.5523 0 1 .4477 1 1m-2 2h-1m3-6c1.4142 0 2.1213 0 2.5607.44.4393.4399.4393 1.1481.4393 2.5643 0 1.4163 0 2.1244-.4393 2.5644-.3207.3211-.784.4079-1.5607.4313" stroke-linecap="round"/></g></svg>